<svg id="Layer_1" data-name="Layer 1" xmlns="http://www.w3.org/2000/svg" xmlns:xlink="http://www.w3.org/1999/xlink" viewBox="0 0 398.3 153.19"><defs><style>.cls-1{fill:none;}.cls-2{clip-path:url(#clip-path);}.cls-3{fill:#330076;}.cls-4{clip-path:url(#clip-path-2);}.cls-5{fill:url(#linear-gradient);}.cls-6{fill:#ac0fff;}</style><clipPath id="clip-path"><rect class="cls-1" x="-224.35" y="-24.14" width="841.89" height="595.28"/></clipPath><clipPath id="clip-path-2"><path class="cls-1" d="M277.4,60.91a2.66,2.66,0,0,1,2.66-2.67h10.65a2.66,2.66,0,0,1,2.66,2.67V71.55a2.67,2.67,0,0,1-5.33,0v-8h-8a2.67,2.67,0,0,1-2.66-2.66m-45.85-5.75c-10.67,10.91-16.3,24.45-15.15,40.69,1.62,22.68,19.94,50.91,56.82,50.87,7.42,0,23.54-2.87,37.46-16.5l.46-.47a4.07,4.07,0,0,0,0-5.66,3.67,3.67,0,0,0-4.84-.41,50.13,50.13,0,0,1-25.51,7.7c-50.71-.63-42-40.83-42-40.83A173.67,173.67,0,0,0,276.41,95c11.61.14,27.24-.74,34.49-3.89,3.85-1.78,5-4.71,5.63-7.68,2.81-20-12.75-41.75-41.74-43.89h0c-1.17-.07-2.35-.1-3.55-.1-13.73,0-28.55,4.37-39.66,15.74"/></clipPath><linearGradient id="linear-gradient" x1="-1165.41" y1="567.78" x2="-1164.41" y2="567.78" gradientTransform="matrix(0, 111.15, 111.15, 0, -62841.4, 129573.86)" gradientUnits="userSpaceOnUse"><stop offset="0" stop-color="#4081ff"/><stop offset="0.44" stop-color="#8e27f9"/><stop offset="1" stop-color="#ae0cff"/></linearGradient></defs><g class="cls-2"><path class="cls-3" d="M96.92,41.15l-.16-.08a12.26,12.26,0,0,0-16.36,6L54.17,104.3,27.08,46.88a12.26,12.26,0,0,0-16.36-6l-.17.07a12.48,12.48,0,0,0-6,16.51l38.34,81.77a12.29,12.29,0,0,0,10.72,7.15h1a12.29,12.29,0,0,0,10.72-7.15l37.47-81.56a12.47,12.47,0,0,0-6-16.51"/></g><g class="cls-4"><rect class="cls-5" x="194.02" y="19.39" width="146.56" height="147.4" transform="translate(-5.78 167.53) rotate(-34.45)"/></g><path class="cls-6" d="M319.62,110.72H309a2.66,2.66,0,0,0,0,5.32h8v8a2.66,2.66,0,1,0,5.32,0V113.38a2.66,2.66,0,0,0-2.66-2.66"/><path class="cls-3" d="M198,146.33a11.76,11.76,0,0,1-11.7-11.74c0-3.35,0-4.25,0-5.16V91.57a26.39,26.39,0,0,0-52.78,0v1.48c0,.63-.05,1.26-.05,1.91v39.61a11.76,11.76,0,0,1-23.52,0c0-8.49,0-19.22,0-23.72h0c0-5.93,0-11.87,0-17.8.07-17.7,6.9-31.82,20.09-42.54,10.72-8.71,22.94-12.16,36.22-10.37S190.4,48.74,199,59.85c7.41,9.56,10.93,20.58,11.2,32.71.25,11.27.19,23.38.11,42.06a11.76,11.76,0,0,1-11.83,11.71Z"/><path class="cls-3" d="M352,67.89c0-4.32,1-4.31,4.26-4.32l23.45-.08c6.66,0,12.46-5.77,12.49-12.15A11.86,11.86,0,0,0,380.1,39.68l-23.47,0c-4.43,0-4.5-.13-4.56-4.78-.05-3.64-.15-20.79-.4-21.73a11.58,11.58,0,0,0-22.83,2.77s0,1.26,0,1.83c0,0,0,75,0,75.52-.07,13,2.74,24.33,11,34.22,10.63,12.79,24.09,19.15,40.47,18.88,4.55-.07,7.79-2.66,9.87-6.62a12.19,12.19,0,0,0-.77-13.19c-2.73-4.09-6.82-5.51-11.36-5.69a25.51,25.51,0,0,1-13.09-4.1c-8.94-5.76-12.65-14.42-12.8-24.9-.06-4.47-.1-23.25-.1-24"/></svg>